<svg viewBox="0 0 1000 1000" xmlns="http://www.w3.org/2000/svg">
    <g fill="#2a3439">
        <path d="m500 19a481.13 481.13 0 0 1 187.22 924.21 481.13 481.13 0 0 1 -374.44-886.42 478.1 478.1 0 0 1 187.22-37.79m0-19c-276.14 0-500 223.86-500 500s223.86 500 500 500 500-223.86 500-500-223.86-500-500-500z"/>
        <path d="m500 1000a498.16 498.16 0 0 0 331.85-126c-16.4-54.39-39.5-87.12-64.43-87.12h-534.84c-24.93 0-48 32.73-64.43 87.12a498.16 498.16 0 0 0 331.85 126z"/>
        <rect height="20.88" rx="10.44" transform="matrix(-1 0 0 -1 1000 1523.47)" width="213.81" x="393.09" y="751.3"/>
        <rect height="20.88" rx="10.44" transform="matrix(-1 0 0 -1 1000 1457.1)" width="213.81" x="393.09" y="718.11"/>
        <rect height="20.88" rx="10.44" transform="matrix(-1 0 0 -1 1000 1392.33)" width="213.81" x="393.09" y="685.73"/>
        <path d="m778.46 309.25h-74.05l26.19-84a45.12 45.12 0 1 0 -49.26-13.25l-30.34 97.25h-301.24l-31.1-99.75a45.11 45.11 0 1 0 -49.26 13.2l27 86.55h-74.86a41.27 41.27 0 0 0 -41.27 41.27v278.37a41.28 41.28 0 0 0 41.27 41.28h556.92a41.28 41.28 0 0 0 41.27-41.28v-278.37a41.27 41.27 0 0 0 -41.27-41.27zm-485.4 145v-50.36h168.69v63.66a17.75 17.75 0 0 1 -17.75 17.75h-119.92a31 31 0 0 1 -31.02-31.03zm320.71 123.75h-227.54a8.83 8.83 0 1 1 0-17.65h227.54a8.83 8.83 0 1 1 0 17.65zm93.17-123.71a31 31 0 0 1 -31 31h-119.94a17.75 17.75 0 0 1 -17.75-17.75v-63.65h168.69z"/>
        <rect height="20.88" rx="10.44" transform="matrix(0 -1 1 0 355.18 1335.29)" width="78.46" x="806" y="479.62"/>
        <rect height="20.88" rx="10.44" transform="matrix(0 -1 1 0 389.5 1369.62)" width="156.92" x="801.1" y="479.62"/>
        <rect height="20.88" rx="10.44" transform="matrix(0 -1 1 0 -335.29 644.82)" width="78.46" x="115.53" y="479.62"/>
        <rect height="20.88" rx="10.44" transform="matrix(0 -1 1 0 -369.62 610.5)" width="156.92" x="41.98" y="479.62"/>
        <path d="m597.61 434.79a19.52 19.52 0 0 0 -10.32 2.95l4.9 11.76-11.69-4.68a19.61 19.61 0 1 0 17.11-10z"/>
        <path d="m402.39 434.79a19.48 19.48 0 0 0 -10.28 2.93l4.89 11.78-11.73-4.69a19.61 19.61 0 1 0 17.1-10z"/>
        <path d="m466.65 208.49a4.89 4.89 0 0 1 -3.59-1.56l-24.06-25.93h-78.27a4.91 4.91 0 0 1 0-9.81h80.42a4.91 4.91 0 0 1 3.6 1.57l20.06 21.61 24.7-67a4.9 4.9 0 0 1 9.24.1l17.83 51.87 15.34-30a4.92 4.92 0 0 1 7.91-1.16l22.09 23h77.35a4.91 4.91 0 0 1 0 9.81h-79.44a4.87 4.87 0 0 1 -3.54-1.51l-18.77-19.48-17.46 34.09a4.91 4.91 0 0 1 -9-.64l-17.06-49.78-22.71 61.62a4.9 4.9 0 0 1 -3.63 3.11 5.31 5.31 0 0 1 -1.01.09z"/>
    </g>
</svg>
